<svg width="80" height="80" viewBox="0 0 80 80" fill="none" xmlns="http://www.w3.org/2000/svg">
<circle cx="40" cy="40" r="39" fill="white" stroke="#B7B6B6" stroke-width="2"/>
<path d="M29.26 34.318H34.228C35.596 34.318 36.676 34.426 37.468 34.642C38.26 34.846 38.842 35.206 39.214 35.722C39.586 36.238 39.772 36.952 39.772 37.864V42.616C39.772 43.504 39.598 44.194 39.25 44.686C38.902 45.166 38.332 45.508 37.54 45.712C36.748 45.904 35.65 46 34.246 46H29.26V34.318ZM34.12 44.002C34.888 44.002 35.464 43.972 35.848 43.912C36.244 43.84 36.526 43.708 36.694 43.516C36.874 43.324 36.964 43.024 36.964 42.616V37.81C36.964 37.258 36.742 36.874 36.298 36.658C35.866 36.43 35.17 36.316 34.21 36.316H32.068V44.002H34.12ZM42.0393 34.318H50.9493V36.316H44.8473V38.998H50.3553V40.996H44.8473V44.002H51.1293V46H42.0393V34.318Z" fill="#B7B6B6"/>
</svg>
