<svg width="75" height="76" viewBox="0 0 75 76" fill="none" xmlns="http://www.w3.org/2000/svg">
<path d="M23.2779 41.1127C26.2153 38.8248 28.1195 35.2527 28.1195 31.2525C28.1195 24.3591 22.5103 18.75 15.617 18.75C8.72368 18.75 3.11454 24.3591 3.11454 31.2525C3.11454 35.2674 5.0187 38.8248 7.95611 41.1127C3.36548 42.515 0 46.8104 0 51.8734V75.0037H3.12931V51.8734C3.12931 47.4009 6.77524 43.7549 11.2478 43.7549H20.0157C24.4883 43.7549 28.1342 47.4009 28.1342 51.8734V75.0037H31.2635V51.8734C31.2488 46.8104 27.8833 42.515 23.2779 41.1127ZM6.24385 31.2525C6.24385 26.0862 10.4507 21.8793 15.617 21.8793C20.7833 21.8793 24.9902 26.0862 24.9902 31.2525C24.9902 36.4188 20.7833 40.6256 15.617 40.6256C10.4507 40.6256 6.24385 36.4188 6.24385 31.2525Z" fill="black"/>
<path d="M67.029 41.1127C69.9664 38.8248 71.8706 35.2527 71.8706 31.2525C71.8706 24.3591 66.2614 18.75 59.3681 18.75C52.4748 18.75 46.8656 24.3591 46.8656 31.2525C46.8656 35.2674 48.7698 38.8248 51.7072 41.1127C47.1018 42.515 43.7363 46.8104 43.7363 51.8586V74.9889L46.8656 75.0037V71.7429V51.8734C46.8656 47.4009 50.5116 43.7549 54.9841 43.7549H63.7521C68.2246 43.7549 71.8706 47.4009 71.8706 51.8734V71.7429V75.0037H74.9999V51.8734C74.9999 46.8104 71.6344 42.515 67.029 41.1127ZM49.9949 31.2525C49.9949 26.0862 54.2018 21.8793 59.3681 21.8793C64.5344 21.8793 68.7413 26.0862 68.7413 31.2525C68.7413 36.4188 64.5344 40.6256 59.3681 40.6256C54.2018 40.6256 49.9949 36.4188 49.9949 31.2525Z" fill="black"/>
<path d="M19.4252 0.166149C18.8791 -0.0995465 18.2443 -0.0257421 17.772 0.358041L9.96348 6.60189C9.59446 6.89711 9.37305 7.35469 9.37305 7.82704C9.37305 8.29939 9.59446 8.75698 9.96348 9.0522L17.772 15.296C18.0524 15.5175 18.4067 15.6355 18.7462 15.6355C18.9824 15.6355 19.2038 15.5913 19.4252 15.4879C19.9714 15.2222 20.3109 14.6761 20.3109 14.0857V9.37694H54.6889V14.0709C54.6889 14.6761 55.0284 15.2222 55.5746 15.4732C55.796 15.5765 56.0174 15.6208 56.2536 15.6208C56.6078 15.6208 56.9473 15.5027 57.2278 15.2813L65.0363 9.03743C65.4053 8.74222 65.6267 8.28463 65.6267 7.81228C65.6267 7.33993 65.4053 6.88235 65.0363 6.58713L57.2278 0.34328C56.7555 -0.040503 56.1207 -0.0995465 55.5746 0.151388C55.0284 0.417084 54.6889 0.963236 54.6889 1.55367V6.24763H20.3109V1.56843C20.3109 0.963236 19.9714 0.417084 19.4252 0.166149ZM17.1815 10.8087L13.4323 7.81228L17.1815 4.81582V10.8087ZM57.8035 4.81582L61.5527 7.81228L57.8035 10.8087V4.81582Z" fill="black"/>
<mask id="mask0" mask-type="alpha" maskUnits="userSpaceOnUse" x="9" y="50" width="15" height="13">
<path d="M16.4873 62.7977L17.4774 61.9165C20.9939 58.7988 23.3154 56.7426 23.3154 54.219C23.3154 52.1628 21.663 50.5472 19.56 50.5472C18.3719 50.5472 17.2316 51.088 16.4873 51.9425C15.743 51.088 14.6028 50.5472 13.4147 50.5472C11.3116 50.5472 9.65919 52.1628 9.65919 54.219C9.65919 56.7426 11.9808 58.7988 15.4972 61.9231L16.4873 62.7977Z" fill="white"/>
</mask>
<g mask="url(#mask0)">
<path d="M2.94678 50.5472L2.94678 52.5943H23.3154V50.5472H2.94678Z" fill="#D12229"/>
<path d="M2.95801 52.5944L2.95801 54.6415H23.3153V52.5944H2.95801Z" fill="#F68A1E"/>
<path d="M2.95801 54.6415L2.95801 56.7817H23.3153V54.6415H2.95801Z" fill="#FDE01A"/>
<path d="M2.95801 56.7817L2.95801 58.8289H23.3153V56.7817H2.95801Z" fill="#007940"/>
<path d="M2.95801 58.8289L2.95801 60.876H23.3153V58.8289H2.95801Z" fill="#24408E"/>
<path d="M2.95801 60.876L2.95801 62.9231H23.3153V60.876H2.95801Z" fill="#732982"/>
</g>
<mask id="mask1" mask-type="alpha" maskUnits="userSpaceOnUse" x="53" y="50" width="15" height="13">
<path d="M60.5088 62.7977L61.4989 61.9165C65.0154 58.7988 67.3369 56.7426 67.3369 54.219C67.3369 52.1628 65.6845 50.5472 63.5814 50.5472C62.3934 50.5472 61.2531 51.088 60.5088 51.9425C59.7645 51.088 58.6242 50.5472 57.4361 50.5472C55.3331 50.5472 53.6807 52.1628 53.6807 54.219C53.6807 56.7426 56.0022 58.7988 59.5187 61.9231L60.5088 62.7977Z" fill="white"/>
</mask>
<g mask="url(#mask1)">
<path d="M46.9683 50.5472V52.5943H67.3368V50.5472H46.9683Z" fill="#D12229"/>
<path d="M46.9795 52.5944V54.6415H67.3368V52.5944H46.9795Z" fill="#F68A1E"/>
<path d="M46.9795 54.6415V56.7817H67.3368V54.6415H46.9795Z" fill="#FDE01A"/>
<path d="M46.9795 56.7817V58.8289H67.3368V56.7817H46.9795Z" fill="#007940"/>
<path d="M46.9795 58.8289V60.876H67.3368V58.8289H46.9795Z" fill="#24408E"/>
<path d="M46.9795 60.876V62.9231H67.3368V60.876H46.9795Z" fill="#732982"/>
</g>
</svg>
