<svg width="75" height="73" viewBox="0 0 75 73" fill="none" xmlns="http://www.w3.org/2000/svg">
<path d="M65.0325 20.536H62.3805V12.6546H57.6428V6.33755H62.3805V3.19392H59.222V0.0354004H52.9199V3.19392H33.9985V4.77318V6.35244V9.51097H37.1571V6.33755H54.4991V12.6397H49.7614V20.5211H45.0236V23.6796H49.7614H62.3805H65.0325C68.787 23.6796 71.8412 26.7339 71.8412 30.4883V69.4186H38.7214V59.9579H35.5629V72.5771H74.9848V30.5032C74.9997 25.0056 70.5301 20.536 65.0325 20.536ZM52.9199 20.536V15.7982H54.4991H57.6577H59.2369V20.536H52.9199Z" fill="black"/>
<path d="M60.7718 51.2868C63.5727 50.6313 65.5393 48.1581 65.5393 45.2677C65.5393 43.3607 64.6901 41.6027 63.2002 40.4257C61.7104 39.2487 59.8033 38.8315 57.941 39.2487L36.9636 44.1801H34.699C35.2354 43.2415 35.5781 42.1837 35.5781 41.0216C35.5781 37.5353 32.7473 34.7195 29.2759 34.7195H14.7348L0.238379 41.1706L1.51967 44.061L15.4052 37.8929H29.261C31.0042 37.8929 32.4195 39.3083 32.4195 41.0514C32.4195 42.7946 31.0042 44.2099 29.261 44.2099H18.2211V47.3685H29.261H37.1424L58.6561 42.3476C59.565 42.139 60.5036 42.3476 61.2336 42.9138C61.9636 43.4948 62.3808 44.3589 62.3808 45.2826C62.3808 46.698 61.4273 47.9048 60.0417 48.2326L36.9636 53.6706H5.12515L0 57.0675L1.74315 59.6897L6.07867 56.7993H37.1424L60.7718 51.2868Z" fill="black"/>
<path d="M35.5634 33.1552C41.8656 33.1552 41.8656 27.002 41.8656 23.6945C41.8656 18.778 36.9192 13.3846 36.7106 13.1612L35.5485 11.9097L34.3864 13.1612C34.1778 13.3846 29.2314 18.778 29.2314 23.6945C29.2612 27.002 29.2612 33.1552 35.5634 33.1552ZM35.5783 16.6921C36.9639 18.5098 38.7368 21.3703 38.7368 23.6796C38.7368 29.0283 37.9025 29.9818 35.5783 29.9818C33.2541 29.9818 32.4198 29.0283 32.4198 23.6796C32.4198 21.3852 34.1927 18.5247 35.5783 16.6921Z" fill="black"/>
</svg>
