<svg width="120" height="120" viewBox="0 0 120 120" fill="none" xmlns="http://www.w3.org/2000/svg">
<rect width="120" height="120" fill="white"/>
<path d="M56.5793 20.9245C56.7088 19.6918 58.2912 19.6918 58.4207 20.9245L59.5062 31.2659C60.9078 44.6195 70.2212 55.1477 82.0339 56.7322L91.182 57.9592C92.2727 58.1056 92.2727 59.8944 91.182 60.0408L82.0339 61.2678C70.2212 62.8523 60.9078 73.3805 59.5062 86.7339L58.4207 97.0753C58.2912 98.3082 56.7088 98.3082 56.5793 97.0753L55.4939 86.7339C54.0922 73.3805 44.7788 62.8523 32.966 61.2678L23.8179 60.0408C22.7274 59.8944 22.7274 58.1056 23.8179 57.9592L32.966 56.7322C44.7788 55.1477 54.0922 44.6195 55.4939 31.2659L56.5793 20.9245Z" fill="black"/>
</svg>
