<svg width="208" height="170" viewBox="0 0 208 170" fill="none" xmlns="http://www.w3.org/2000/svg">
<rect width="208" height="170" fill="white"/>
<path d="M105.5 26L110.096 57.2681L123.678 28.7476L118.879 59.985L140.241 36.7464L126.474 65.1775L153.718 49.2854L132.205 72.3841L162.91 65.2508L135.563 80.9645L167 83.2235L136.25 90.1562L165.626 101.607L134.205 99.143L158.91 118.768L129.609 107.126L147.448 133.181L122.871 113.395L132.259 143.566L114.589 117.394L114.692 149L105.5 118.768L96.3082 149L96.4109 117.394L78.7414 143.566L88.1295 113.395L63.5521 133.181L81.3913 107.126L52.0901 118.768L76.7954 99.143L45.3738 101.607L74.75 90.1562L44 83.2235L75.437 80.9645L48.0907 65.2508L78.7951 72.3841L57.2826 49.2854L84.526 65.1775L70.7587 36.7464L92.1208 59.985L87.3218 28.7476L100.904 57.2681L105.5 26Z" fill="black"/>
</svg>
