<svg width="76" height="48" viewBox="0 0 76 48" fill="none" xmlns="http://www.w3.org/2000/svg">
<path d="M75.9393 7.7876V4.64895C71.2314 4.64895 66.7328 6.41074 63.2803 9.46055V4.70817C63.2803 3.92351 62.6974 3.25729 61.9053 3.15365L38.1714 0.0150099C38.0369 0.000205019 37.8875 0.000205019 37.753 0.0150099L14.0341 3.15365C13.2419 3.25729 12.659 3.92351 12.659 4.70817V9.47536C9.20658 6.41074 4.70791 4.64895 0 4.64895V7.7876C4.99188 7.7876 9.6699 10.1416 12.659 14.0945V32.8375C9.6699 36.7756 4.99188 39.1444 0 39.1444V42.2831C4.70791 42.2831 9.20658 40.5361 12.659 37.4715V42.3275C12.659 43.1122 13.2419 43.7784 14.0341 43.882L37.7679 47.0207C37.8426 47.0355 37.9024 47.0355 37.9771 47.0355C38.0519 47.0355 38.1117 47.0355 38.1864 47.0207L61.9202 43.882C62.7124 43.7784 63.2952 43.1122 63.2952 42.3275V37.4567C66.7477 40.5065 71.2314 42.2683 75.9543 42.2683V39.1296C70.9624 39.1296 66.2844 36.7756 63.2952 32.8227V14.0945C66.2694 10.1416 70.9475 7.7876 75.9393 7.7876ZM60.1118 40.9358L37.9622 43.8672L15.8126 40.9358V6.07022L37.9622 3.15365L60.1118 6.07022V40.9358Z" fill="black"/>
<path d="M53.7896 12.5399H22.1494V15.6786H53.7896V12.5399Z" fill="black"/>
<path d="M50.6365 21.941H25.3184V25.0797H50.6365V21.941Z" fill="black"/>
<path d="M56.9432 31.3422H18.981V34.4808H56.9432V31.3422Z" fill="black"/>
</svg>
