<svg width="80" height="80" viewBox="0 0 80 80" fill="none" xmlns="http://www.w3.org/2000/svg">
<circle cx="40" cy="40" r="39" fill="white" stroke="#B7B6B6" stroke-width="2"/>
<path d="M28.26 34.318H33.516C35.076 34.318 36.204 34.51 36.9 34.894C37.596 35.266 37.944 35.896 37.944 36.784V38.836C37.944 39.52 37.698 40.06 37.206 40.456C36.726 40.84 36.084 41.086 35.28 41.194L38.664 46H35.424L32.364 41.41H31.068V46H28.26V34.318ZM33.48 39.556C34.14 39.556 34.59 39.472 34.83 39.304C35.07 39.124 35.19 38.782 35.19 38.278V37.45C35.19 37.018 35.058 36.724 34.794 36.568C34.542 36.4 34.104 36.316 33.48 36.316H31.068V39.556H33.48ZM45.3054 46.18C41.9334 46.18 40.2474 45.052 40.2474 42.796V34.318H43.0554V42.796C43.0554 43.324 43.2234 43.69 43.5594 43.894C43.9074 44.086 44.5014 44.182 45.3414 44.182C46.1694 44.182 46.7454 44.086 47.0694 43.894C47.4054 43.69 47.5734 43.324 47.5734 42.796V34.318H50.3814V42.796C50.3814 45.052 48.6894 46.18 45.3054 46.18Z" fill="#B7B6B6"/>
</svg>
